<?xml version="1.0" encoding="UTF-8" standalone="no"?>
<!-- Created with Inkscape (http://www.inkscape.org/) -->

<svg
   width="175.82855mm"
   height="312.90546mm"
   viewBox="0 0 175.82855 312.90546"
   version="1.1"
   id="svg5"
   xml:space="preserve"
   inkscape:export-filename="lines_bg.svg"
   inkscape:export-xdpi="100.9"
   inkscape:export-ydpi="100.9"
   xmlns:inkscape="http://www.inkscape.org/namespaces/inkscape"
   xmlns:sodipodi="http://sodipodi.sourceforge.net/DTD/sodipodi-0.dtd"
   xmlns="http://www.w3.org/2000/svg"
   xmlns:svg="http://www.w3.org/2000/svg"><sodipodi:namedview
     id="namedview7"
     pagecolor="#ffffff"
     bordercolor="#000000"
     borderopacity="0.25"
     inkscape:showpageshadow="2"
     inkscape:pageopacity="0.0"
     inkscape:pagecheckerboard="0"
     inkscape:deskcolor="#d1d1d1"
     inkscape:document-units="mm"
     showgrid="false" /><defs
     id="defs2" /><g
     inkscape:groupmode="layer"
     id="layer2"
     inkscape:label="Layer 2"
     transform="translate(730.49855,16.773136)"><g
       id="g5840"><path
         id="path5819"
         style="opacity:0.979;fill:#191919;stroke-width:1.797;stop-color:#000000"
         d="M -730.49856,-16.773136 V 296.13231 h 70.84632 c 0.007,-0.009 0.0131,-0.0181 0.0196,-0.0269 -0.58425,-0.77341 -1.13646,-1.50022 -1.72083,-2.27686 -25.16356,-33.44352 -50.09335,-69.98915 -49.54013,-109.73542 0.27897,-20.04341 11.49948,-33.83785 28.34349,-43.60561 8.85269,-5.13363 19.27721,-9.1894 30.5356,-12.60492 -2.5874,-10.45066 -4.11342,-23.19869 -3.6251,-40.179456 0.52749,-18.341161 9.50741,-33.158044 22.71076,-45.637008 13.20335,-12.478959 30.62651,-22.692971 48.29111,-32.0755613 10.19087,-5.4129005 20.37814,-10.54819995 29.96768,-15.6589926 V -16.773136 Z m 175.82854,14.049788 c -9.21626,4.8812716 -18.91269,9.7698126 -28.55743,14.892631 -17.59206,9.344062 -34.8083,19.470473 -47.68856,31.644063 -12.88025,12.173588 -21.43002,26.321809 -21.93716,43.955974 -0.48036,16.70352 0.9723,29.14963 3.47162,39.34282 9.39979,-2.73776 19.31303,-5.075 29.41732,-7.18509 4.1431,-0.86521 8.31876,-1.66894 12.48813,-2.48047 -0.20124,-4.04061 -0.29733,-8.32252 -0.262,-12.90412 0.28786,-37.329822 26.46631,-62.695513 53.06808,-83.949402 z m 0,26.726534 c -25.77158,20.80603 -50.00702,45.137642 -50.28013,80.556324 -0.0338,4.37831 0.0509,8.47427 0.23357,12.3393 17.48672,-3.37174 34.81843,-6.48493 50.04656,-10.36474 z m -0.18965,85.197384 c -15.28812,3.84262 -32.4703,6.9293 -49.71738,10.25725 0.68587,11.33947 2.26052,20.57593 4.35477,28.60549 12.7704,-15.38483 28.95669,-27.72026 45.05048,-38.65345 0.10424,-0.0708 0.20816,-0.13995 0.31213,-0.20929 z m 0.18965,3.03857 c -16.19943,11.07128 -32.23915,23.46253 -44.66394,38.94233 2.61189,9.04597 5.83799,16.67305 9.17515,24.11326 6.01185,-9.94369 12.58586,-18.82804 19.09444,-27.01231 5.67452,-7.13544 11.2614,-13.73419 16.39435,-20.06544 z m -52.66138,7.76542 c -4.01064,0.78153 -8.0291,1.55323 -12.00651,2.38384 -10.14422,2.11842 -20.06256,4.46801 -29.41939,7.20524 2.83105,10.43588 6.77445,18.48662 10.81226,26.4604 5.69413,11.24467 11.57692,22.39016 14.61358,39.54901 3.43974,-17.55892 11.02756,-32.23476 20.96048,-44.87427 -2.37773,-8.55076 -4.18726,-18.44823 -4.96042,-30.72422 z m -44.0521,10.35803 c -11.01587,3.35717 -21.14875,7.3142 -29.66278,12.25144 -16.32492,9.46675 -26.7924,22.29508 -27.05985,41.51065 -0.53959,38.76708 23.944,74.9062 49.05644,108.28176 0.36464,0.48463 0.71362,0.93975 1.07848,1.42317 15.36659,-21.10156 29.54077,-47.77567 33.06103,-87.19261 0.0363,-0.40633 0.0902,-0.8006 0.13074,-1.20406 -2.21758,-22.48436 -8.99139,-35.07912 -15.6993,-48.32573 -4.02843,-7.95529 -8.0156,-16.15635 -10.90476,-26.74462 z m 96.71348,2.15594 c -4.52692,5.50119 -9.31985,11.18859 -14.13247,17.24029 -6.86903,8.63751 -13.78369,18.0021 -20.01222,28.55691 7.76265,17.26346 15.48536,35.03576 15.48536,70.23292 0,17.93243 -1.94089,33.59819 -4.85293,47.58366 h 23.51226 z m -46.78164,21.37802 c -10.76035,14.21263 -18.43771,30.99472 -20.53673,51.61545 0.48013,4.91603 0.75706,10.2578 0.75706,16.17679 0,30.93648 -6.69174,54.59765 -13.90716,74.44352 h 10.28981 c 5.55982,-12.47685 9.30039,-26.48465 10.28774,-42.50283 1.92905,-31.29573 11.09874,-55.49079 22.68441,-75.43622 -0.0546,-0.12136 -0.10817,-0.24343 -0.16278,-0.36484 -3.33887,-7.42202 -6.67366,-14.96468 -9.41235,-23.93187 z m 10.94093,27.3544 c -10.92198,19.30938 -19.42164,42.58258 -21.26691,72.51961 -0.98038,15.90498 -4.64824,29.88124 -10.09448,42.36175 h 40.81146 c 2.96513,-13.96744 4.94389,-29.62157 4.94389,-47.58366 0,-33.529 -6.96168,-50.6948 -14.39396,-67.2977 z m -33.50958,40.32726 c -5.47936,32.50315 -18.49214,55.75226 -32.25023,74.49519 0.0151,0.0199 0.0294,0.039 0.0444,0.0589 h 18.15083 c 7.28204,-19.88396 14.0565,-43.42614 14.0565,-74.44352 0,-0.0381 -0.002,-0.0725 -0.002,-0.11058 z" /></g></g></svg>
