<svg width="223" height="45" viewBox="0 0 223 45" fill="none" xmlns="http://www.w3.org/2000/svg">
<path d="M0 44.0738V15.1453H7.55069L8.15255 18.4958C9.44748 17.043 10.8154 15.9625 12.2562 15.2542C13.697 14.546 15.3385 14.1919 17.1805 14.1919C19.661 14.1919 21.6125 14.9455 23.0351 16.4528C24.4577 17.96 25.169 20.0847 25.169 22.8269V44.0738H16.524V25.3057C16.524 24.1253 16.4419 23.1901 16.2777 22.5C16.1136 21.7918 15.8218 21.2924 15.4023 21.0018C15.0011 20.6931 14.4448 20.5387 13.7335 20.5387C13.1316 20.5387 12.5389 20.6749 11.9553 20.9473C11.3899 21.2016 10.8336 21.5738 10.2864 22.0642C9.73929 22.5545 9.19214 23.1447 8.64499 23.8347V44.0738H0Z" fill="white"/>
<path d="M45.3922 14.1919C48.3833 14.1919 50.9275 14.8275 53.0249 16.0987C55.1223 17.3699 56.7273 19.1586 57.8399 21.4649C58.9524 23.753 59.5087 26.4407 59.5087 29.5278C59.5087 32.7421 58.9433 35.5115 57.8125 37.836C56.7 40.1422 55.095 41.9128 52.9976 43.1477C50.9002 44.3826 48.365 45 45.3922 45C42.4376 45 39.9024 44.3916 37.7868 43.1749C35.6894 41.9582 34.0753 40.1967 32.9445 37.8904C31.8319 35.5841 31.2757 32.8148 31.2757 29.5823C31.2757 26.5133 31.8319 23.8257 32.9445 21.5194C34.0753 19.2131 35.6894 17.4153 37.7868 16.1259C39.9024 14.8366 42.4376 14.1919 45.3922 14.1919ZM45.3922 20.5387C43.6231 20.5387 42.3099 21.2651 41.4527 22.7179C40.6137 24.1525 40.1942 26.4407 40.1942 29.5823C40.1942 32.7785 40.6137 35.0938 41.4527 36.5285C42.3099 37.9631 43.6231 38.6804 45.3922 38.6804C47.1613 38.6804 48.4653 37.9631 49.3043 36.5285C50.1615 35.0938 50.5901 32.7603 50.5901 29.5278C50.5901 26.4044 50.1615 24.1253 49.3043 22.6907C48.4653 21.2561 47.1613 20.5387 45.3922 20.5387Z" fill="white"/>
<path d="M91.7692 42.385C90.6384 43.1114 89.2706 43.7288 87.6656 44.2373C86.0606 44.7458 84.255 45 82.2488 45C78.4552 45 75.6374 44.0375 73.7953 42.1126C71.9532 40.1695 71.0322 37.5363 71.0322 34.2131V21.0835H64.9314V15.1453H71.0322V8.88014L79.6772 7.84504V15.1453H89.0335L88.1854 21.0835H79.6772V34.2131C79.6772 35.6477 80.0055 36.6737 80.662 37.2912C81.3186 37.9086 82.3673 38.2173 83.8082 38.2173C84.8295 38.2173 85.7597 38.0993 86.5986 37.8632C87.4558 37.609 88.2219 37.2912 88.8967 36.9098L91.7692 42.385Z" fill="white"/>
<path d="M105.919 32.1156C106.12 33.6955 106.53 34.9758 107.15 35.9564C107.788 36.9189 108.6 37.6271 109.585 38.0811C110.57 38.5169 111.673 38.7349 112.895 38.7349C114.227 38.7349 115.512 38.5169 116.753 38.0811C117.993 37.6453 119.187 37.0642 120.336 36.3378L123.811 41.023C122.443 42.1852 120.783 43.1386 118.832 43.8832C116.899 44.6277 114.692 45 112.211 45C108.892 45 106.111 44.3462 103.867 43.0387C101.624 41.7131 99.9369 39.8971 98.8061 37.5908C97.6753 35.2845 97.1099 32.6332 97.1099 29.6368C97.1099 26.7857 97.6571 24.1979 98.7514 21.8735C99.8457 19.5309 101.442 17.6695 103.539 16.2893C105.655 14.891 108.235 14.1919 111.281 14.1919C114.053 14.1919 116.452 14.7821 118.476 15.9625C120.519 17.1429 122.096 18.8408 123.209 21.0563C124.34 23.2718 124.905 25.9322 124.905 29.0375C124.905 29.5278 124.887 30.0545 124.85 30.6174C124.832 31.1804 124.796 31.6798 124.741 32.1156H105.919ZM111.281 19.9667C109.731 19.9667 108.482 20.5206 107.533 21.6283C106.585 22.7361 106.01 24.5067 105.81 26.9401H116.479C116.461 24.8335 116.05 23.1447 115.248 21.8735C114.445 20.6023 113.123 19.9667 111.281 19.9667Z" fill="white"/>
<path d="M139.876 18.1144C140.788 16.9159 141.882 15.9625 143.159 15.2542C144.454 14.546 145.84 14.1919 147.317 14.1919C149.816 14.1919 151.849 14.8184 153.418 16.0714C155.005 17.3245 156.172 19.095 156.92 21.3832C157.667 23.6713 158.041 26.3862 158.041 29.5278C158.041 32.5061 157.594 35.1665 156.701 37.5091C155.825 39.8335 154.521 41.6677 152.789 43.0115C151.056 44.3372 148.931 45 146.414 45C143.368 45 140.97 43.8196 139.219 41.4588L138.891 44.0738H131.231V3.65012L139.876 2.75121V18.1144ZM144.144 38.7349C145.676 38.7349 146.888 38.0357 147.782 36.6374C148.676 35.2209 149.123 32.8874 149.123 29.6368C149.123 27.2397 148.931 25.3874 148.548 24.0799C148.183 22.7542 147.654 21.8372 146.961 21.3287C146.287 20.8021 145.493 20.5387 144.581 20.5387C143.615 20.5387 142.748 20.8384 141.982 21.4377C141.216 22.0369 140.514 22.8541 139.876 23.8892V36.0926C140.423 36.9461 141.034 37.5999 141.709 38.0539C142.384 38.5079 143.195 38.7349 144.144 38.7349Z" fill="white"/>
<path d="M181.794 15.1453V38.1901H189.18V44.0738H164.914V38.1901H173.149V21.0291H165.187V15.1453H181.794ZM176.568 0C178.064 0 179.286 0.463075 180.234 1.38923C181.183 2.31538 181.657 3.46852 181.657 4.84867C181.657 6.22881 181.183 7.39104 180.234 8.33535C179.286 9.2615 178.064 9.72458 176.568 9.72458C175.054 9.72458 173.814 9.2615 172.848 8.33535C171.899 7.39104 171.425 6.22881 171.425 4.84867C171.425 3.46852 171.899 2.31538 172.848 1.38923C173.814 0.463075 175.054 0 176.568 0Z" fill="#A15CD6"/>
<path d="M223 42.385C221.869 43.1114 220.501 43.7288 218.896 44.2373C217.291 44.7458 215.486 45 213.48 45C209.686 45 206.868 44.0375 205.026 42.1126C203.184 40.1695 202.263 37.5363 202.263 34.2131V21.0835H196.162V15.1453H202.263V8.88014L210.908 7.84504V15.1453H220.264L219.416 21.0835H210.908V34.2131C210.908 35.6477 211.236 36.6737 211.893 37.2912C212.549 37.9086 213.598 38.2173 215.039 38.2173C216.06 38.2173 216.99 38.0993 217.829 37.8632C218.687 37.609 219.453 37.2912 220.127 36.9098L223 42.385Z" fill="white"/>
</svg>
